<!DOCTYPE svg PUBLIC "-//W3C//DTD SVG 20010904//EN" "http://www.w3.org/TR/2001/REC-SVG-20010904/DTD/svg10.dtd">
<svg version="1.0" xmlns="http://www.w3.org/2000/svg" width="25px" height="25px" viewBox="0 0 250 250" preserveAspectRatio="xMidYMid meet">
<g id="layer101" fill="#000000" stroke="none">
 <path d="M97 209 c-12 -25 -33 -48 -58 -62 -21 -12 -38 -25 -36 -29 4 -13 237 -122 244 -114 8 8 -110 239 -124 243 -4 1 -16 -16 -26 -38z m65 -71 l35 -67 -49 41 c-26 23 -48 42 -48 44 0 6 23 54 25 52 1 -2 18 -33 37 -70z m-25 -43 l48 -46 -65 32 c-78 38 -78 38 -60 49 22 14 24 13 77 -35z"/>
 </g>

</svg>